<svg viewBox="0 0 15 14"><path fill="#FFF" fill-rule="evenodd" d="M14.778 3.788a.662.662 0 0 0 .175-.74.683.683 0 0 0-.64-.429H5.745C5.637 1.158 4.395 0 2.878 0 1.292 0 0 1.267 0 2.824 0 4.383 1.292 5.65 2.878 5.65a2.88 2.88 0 0 0 1.56-.465l3.295 2.977v4.491H5.336a.68.68 0 0 0-.686.674c0 .37.307.673.686.673h6.997a.68.68 0 0 0 .686-.673.68.68 0 0 0-.686-.674H9.936V8.162l4.842-4.374zM.418 2.824C.419 1.494 1.523.41 2.879.41c1.286 0 2.344.974 2.45 2.209H3.356a.683.683 0 0 0-.64.429.662.662 0 0 0 .175.74l1.234 1.115c-.378.22-.804.336-1.247.336-1.356 0-2.46-1.083-2.46-2.415zm11.915 10.24c.148 0 .267.117.267.263a.264.264 0 0 1-.267.262H5.336a.265.265 0 0 1-.268-.262c0-.146.12-.263.268-.263h2.816V7.982L4.604 4.777l-1.43-1.292a.253.253 0 0 1-.068-.288.262.262 0 0 1 .25-.167h10.957c.17 0 .234.128.25.167a.253.253 0 0 1-.069.288L9.517 7.982v5.082h2.816z"/></svg>