<svg viewBox="0 0 17 12"><g fill="#FFF" fill-rule="evenodd"><path d="M16.046 11.426h-1.907V8.848H1.907v2.578H0V0h1.907v5.686h14.139v5.74zm-1.502-.405h1.097V6.09H1.502V.404H.405v10.617h1.097V8.444h13.042v2.577z"/><path d="M16.046 5.04H6.624v-.707a2.254 2.254 0 0 1 2.251-2.25h4.92a2.254 2.254 0 0 1 2.251 2.25v.706zm-9.018-.406h8.613v-.3a1.849 1.849 0 0 0-1.846-1.848h-4.92a1.85 1.85 0 0 0-1.847 1.847v.301zM4.155 5.04a1.48 1.48 0 0 1 0-2.958 1.48 1.48 0 0 1 1.479 1.48 1.48 1.48 0 0 1-1.48 1.477m0-2.553a1.075 1.075 0 1 0 .001 2.147 1.075 1.075 0 0 0 0-2.147"/></g></svg>