<svg viewBox="0 0 9 15"><g fill="#FFF" fill-rule="evenodd"><path d="M2.295 14.776a.973.973 0 0 1-.7-.297.966.966 0 0 1-.297-.707V5.547C.917 5.323 0 4.65 0 4.29V.933a.606.606 0 0 1 1.208 0v2.61c0 .055.018.098.059.14a.189.189 0 0 0 .279 0 .185.185 0 0 0 .06-.14V.933a.604.604 0 0 1 1.208 0v2.61c0 .055.018.098.06.14a.189.189 0 0 0 .278 0 .185.185 0 0 0 .06-.14V.933a.605.605 0 0 1 1.208 0V4.29c0 .348-.767 1.025-1.133 1.255v8.227c0 .272-.099.51-.297.707a.97.97 0 0 1-.695.297M.604.734a.189.189 0 0 0-.14.06.185.185 0 0 0-.059.14V4.29c.063.18.955.872 1.162.945l.135.047v8.49c0 .163.059.301.179.421a.564.564 0 0 0 .823 0 .572.572 0 0 0 .179-.42v-8.49l.135-.048c.199-.07.953-.768.998-.958L4.015.933a.181.181 0 0 0-.06-.139.188.188 0 0 0-.278 0 .185.185 0 0 0-.06.14v2.61a.605.605 0 0 1-1.208 0V.933a.183.183 0 0 0-.06-.14.188.188 0 0 0-.279 0 .188.188 0 0 0-.059.14v2.61a.605.605 0 0 1-1.208 0V.933a.183.183 0 0 0-.06-.14.185.185 0 0 0-.139-.06M7.422 14.941a.973.973 0 0 1-.7-.297.967.967 0 0 1-.298-.707V6.824h-.709a.393.393 0 0 1-.284-.12.394.394 0 0 1-.118-.284V2.211c0-.606.218-1.131.648-1.561C6.392.219 6.917 0 7.522 0h.29a.59.59 0 0 1 .424.179.59.59 0 0 1 .18.425v13.333a.97.97 0 0 1-.299.707.97.97 0 0 1-.695.297zM5.717 6.419H6.83v7.518c0 .163.058.301.18.421a.564.564 0 0 0 .823 0 .574.574 0 0 0 .178-.421V.604a.184.184 0 0 0-.06-.139.185.185 0 0 0-.139-.06h-.289c-.5 0-.917.173-1.275.531-.356.356-.53.774-.53 1.275v4.208z"/></g></svg>