<svg viewBox="0 0 14 15"><path fill="#FFF" fill-rule="evenodd" d="M4.206 15c-.082 0-.166-.003-.249-.01-.993-.067-1.95-.532-2.695-1.31C-.283 12.068-.43 9.598.935 8.174a3.157 3.157 0 0 1 2.117-.968h.007c1.464-.178 1.508-.297 1.72-.866.084-.226.188-.506.389-.867.46-.835.964-1.022 1.304-1.03.425-.016.82.234 1.08.654.118.193.207.278.262.317l2.25-2.332c.154-.177.195-.434.093-.603l-.084-.14.209-.195c.342-.145.706-.409 1.027-.743.32-.334.573-.715.712-1.072l.044-.07.152-.157c.166-.174.467-.12.7.121l.87.909c.232.242.281.557.114.731l-.218.206c-.34.144-.704.408-1.024.741a3.37 3.37 0 0 0-.709 1.066l-.044.07-.148.152-.128-.068c-.165-.09-.387-.044-.555.111l-2.352 2.56c-.08.186-.395.998.03 1.443a.694.694 0 0 0 .93.111l.328-.235-.018.414c-.019.448-.26.798-.807 1.168-.154.103-.347.17-.55.24-.55.19-1.07.37-.97 1.24.115 1.008-.41 1.962-.735 2.441-.085.135-.185.27-.295.393l-.194.222-.007-.01A3.184 3.184 0 0 1 4.206 15m-.82-7.42l.009.02-.301.018a2.78 2.78 0 0 0-1.879.849c-1.21 1.263-1.062 3.47.328 4.92.678.707 1.544 1.13 2.44 1.191.886.063 1.695-.24 2.277-.848l.097-.107c.1-.118.177-.224.247-.333.294-.436.768-1.288.668-2.158-.14-1.205.69-1.492 1.239-1.683.18-.061.348-.12.46-.195.27-.183.426-.34.514-.478-.298.06-.674.013-1.012-.34-.492-.513-.359-1.367-.096-1.943l.036-.053 2.39-2.6c.239-.226.554-.316.832-.246.165-.368.426-.745.744-1.077a3.7 3.7 0 0 1 1.116-.815l.126-.131c-.013.014-.035-.065-.115-.147l-.87-.908c-.08-.082-.162-.114-.17-.102l-.09.104c-.16.397-.439.813-.786 1.176a3.793 3.793 0 0 1-1.011.765 1 1 0 0 1-.228.909l-2.41 2.498-.087-.006c-.213-.015-.421-.19-.636-.539-.14-.226-.402-.464-.72-.464h-.016c-.342.009-.678.292-.97.822-.186.334-.284.6-.363.81-.255.687-.393.903-1.764 1.092"/></svg>