<svg width="12" height="14" viewBox="0 0 12 14"><g fill="#FFFFFE" fill-rule="evenodd"><path d="M1.319 10.197a.536.536 0 0 1 .083-.554l4.527-5.428a3.432 3.432 0 0 0 1.66 1.66L2.16 10.404a.538.538 0 0 1-.558.082 2.447 2.447 0 0 0-.262.315.941.941 0 0 0 1.08-.087L8.4 5.726a3.037 3.037 0 0 1-2.322-2.322L1.09 9.384a.942.942 0 0 0-.051 1.14 2.91 2.91 0 0 1 .279-.327"/><path d="M6.601 3.741a2.648 2.648 0 0 0 1.86 1.584 2.57 2.57 0 0 0 1.6-.123c.254-.103.494-.248.713-.433A4.329 4.329 0 0 1 7.035 1.03a2.633 2.633 0 0 0-.557 2.313c.031.135.07.268.123.398m.22-1.215c.013-.133.037-.263.073-.391A4.697 4.697 0 0 0 7.98 3.823a4.684 4.684 0 0 0 1.688 1.086 2.235 2.235 0 0 1-1.116.022 2.27 2.27 0 0 1-.338-.103 2.244 2.244 0 0 1-.744-.495 2.231 2.231 0 0 1-.649-1.375 2.397 2.397 0 0 1 0-.432"/><path d="M11.137 4.396a2.638 2.638 0 0 0 .567-1.909A2.64 2.64 0 0 0 10.94.864 2.658 2.658 0 0 0 8.063.281a2.644 2.644 0 0 0-.656.385 3.93 3.93 0 0 0 3.73 3.73M8.215.656A2.234 2.234 0 0 1 9.278.502a2.246 2.246 0 0 1 2.024 2.024 2.252 2.252 0 0 1-.358 1.448A3.524 3.524 0 0 1 8.84 2.965 3.53 3.53 0 0 1 7.83.86c.123-.08.252-.149.386-.203M8.046 13.14a.204.204 0 0 0-.111-.265c-1.08-.44-2.07-.518-2.941-.23-.43.14-.705.328-.948.493-.275.187-.492.335-.86.354-.928.05-2.104-.683-2.17-1.67-.027-.408.14-.76.324-1.023a.936.936 0 0 1-.301-.275c-.236.323-.462.781-.426 1.325.03.482.264.911.603 1.25.524.524 1.304.834 1.993.797.479-.025.763-.219 1.064-.423.232-.158.472-.32.848-.445.777-.256 1.672-.18 2.66.222a.202.202 0 0 0 .265-.11"/><path d="M1.34 10.8c.091-.13.184-.237.263-.316a.557.557 0 0 1-.285-.287 3.004 3.004 0 0 0-.279.327.91.91 0 0 0 .11.132.945.945 0 0 0 .191.143"/></g></svg>