<svg width="12" height="14" viewBox="0 0 12 14"><path fill="#FFF" fill-rule="evenodd" d="M2.339 14A2.337 2.337 0 0 1 0 11.669 2.337 2.337 0 0 1 3.054 9.45V1.602l.204-.04h.196L12 0v10.146a2.338 2.338 0 0 1-4.677 0 2.338 2.338 0 0 1 3.054-2.218V3.911l-5.7 1.044v6.714A2.338 2.338 0 0 1 2.34 14m0-4.255a1.93 1.93 0 0 0-1.931 1.924 1.93 1.93 0 0 0 1.93 1.923c1.064 0 1.93-.862 1.93-1.923V4.615l6.518-1.192v5.13l-.293-.14a1.929 1.929 0 0 0-2.762 1.734c0 1.06.866 1.923 1.93 1.923s1.93-.862 1.93-1.924V.488L3.463 1.97v8.105l-.293-.14a1.916 1.916 0 0 0-.831-.19"/></svg>