<svg width="13" height="14" viewBox="0 0 13 14"><path fill="#FFF" fill-rule="evenodd" d="M12.397 12.75H8.514V6.131c.05-.011.1-.022.15-.035l3.409-.913a.314.314 0 0 0 .236-.349.32.32 0 0 0-.322-.276H7.152V1.797a.37.37 0 0 1 .373-.367c.207 0 .375.165.375.367v1.048c0 .11.091.199.204.199a.2.2 0 0 0 .203-.2V1.798a.775.775 0 0 0-.782-.766.775.775 0 0 0-.78.766V4.56H6.23V.923A.934.934 0 0 0 5.289 0a.933.933 0 0 0-.942.923v1.339c0 .11.091.2.204.2a.2.2 0 0 0 .203-.2V.923A.53.53 0 0 1 5.29.4a.53.53 0 0 1 .534.524V4.56h-4.81a.32.32 0 0 0-.322.276.315.315 0 0 0 .236.349l3.408.913c.05.013.101.024.152.035v6.617H.603A.598.598 0 0 0 0 13.34v.07c0 .325.27.59.603.59h11.794a.598.598 0 0 0 .603-.59v-.07c0-.325-.27-.59-.603-.59zm-4.29 0H4.894V6.22a8.423 8.423 0 0 0 3.213 0v6.528zM4.443 5.71L1.63 4.96h9.741l-2.813.752a3.51 3.51 0 0 1-.176.042l-.097.022-.021.004-.001.001a7.981 7.981 0 0 1-3.526 0l-.11-.025c-.062-.014-.124-.027-.184-.044zm8.15 7.698a.195.195 0 0 1-.196.192H.603a.194.194 0 0 1-.195-.192v-.069c0-.105.087-.191.195-.191h11.794c.108 0 .196.086.196.191v.07z"/></svg>