<svg width="45" height="33" viewBox="0 0 45 33" xmlns="http://www.w3.org/2000/svg">
  <path d="M5.017 23.019v2.983h37.966V23.02H5.017zm6.277-.998h1.372V4.978h-1.372v17.043zM7.518.998v2.983h32.964V.998H7.518zM27.32 22.021h1.371V4.978H27.32v17.043zm-8.014 0h1.372V4.978h-1.372v17.043zm-5.624 0h4.607V4.978h-4.607v17.043zm8.013 0h4.607V4.978h-4.607v17.043zm8.013 0h4.608V4.978h-4.608v17.043zm5.625 0h1.371V4.978h-1.371v17.043zM4.508 27A.503.503 0 0 1 4 26.501V22.52c0-.276.227-.499.508-.499h5.77V4.978h-3.27a.504.504 0 0 1-.508-.499V.5c0-.277.228-.5.509-.5h33.982c.28 0 .508.223.508.5v3.98a.503.503 0 0 1-.508.498h-3.268v17.043h5.768c.282 0 .509.223.509.499v3.98a.503.503 0 0 1-.509.499H4.508zM.989 31.998H44.01v-2.996H.99v2.996zM44.506 28H.494a.497.497 0 0 0-.494.501V32.5c0 .277.221.501.494.501h44.012A.497.497 0 0 0 45 32.5v-4a.497.497 0 0 0-.494-.501z" fill="#FFFFFE" fill-rule="evenodd"/>
</svg>