<svg xmlns="http://www.w3.org/2000/svg" width="34" height="33" viewBox="0 0 34 33">
  <g fill="none" fill-rule="evenodd">
    <path fill="#68C1BE" d="M.667 32.865H33.84V0H.667z"/>
    <g fill="#FFFFFE">
      <path d="M21.409 7.116h-8.79c-2.984 0-5.413 2.407-5.413 5.364v8.707c0 2.957 2.429 5.363 5.414 5.363h8.789c2.985 0 5.413-2.406 5.413-5.363V12.48c0-2.957-2.428-5.364-5.413-5.364zm3.672 14.07c0 2.007-1.648 3.64-3.672 3.64h-8.79c-2.025 0-3.672-1.633-3.672-3.64V12.48c0-2.008 1.647-3.639 3.673-3.639h8.789c2.024 0 3.672 1.631 3.672 3.639v8.707z"/>
      <path d="M17.014 11.826c-2.788 0-5.055 2.246-5.055 5.006 0 2.762 2.267 5.008 5.055 5.008 2.786 0 5.055-2.246 5.055-5.008 0-2.76-2.269-5.006-5.055-5.006m0 8.289c-1.828 0-3.314-1.47-3.314-3.283 0-1.809 1.486-3.283 3.314-3.283s3.314 1.474 3.314 3.283c0 1.812-1.486 3.283-3.314 3.283m5.266-9.751a1.28 1.28 0 0 0-.9.37c-.24.235-.376.56-.376.894 0 .332.137.66.376.894a1.287 1.287 0 0 0 1.803 0 1.27 1.27 0 0 0 .374-.894 1.267 1.267 0 0 0-1.276-1.264"/>
    </g>
  </g>
</svg>