<svg xmlns="http://www.w3.org/2000/svg" width="17" height="21" viewBox="0 0 17 21">
  <g fill="#414241" fill-rule="evenodd">
    <path d="M14.053 2.575C12.466 1.06 10.376.282 8.171.358 3.951.522.497 4.073.471 8.272a7.946 7.946 0 0 0 2.734 6.037c1.81 1.579 3.405 3.574 4.873 6.1l.415.715.446-.764c1.454-2.503 3.037-4.478 4.835-6.043a7.945 7.945 0 0 0 2.742-5.997 7.875 7.875 0 0 0-2.463-5.745m-.705 11.258c-1.805 1.57-3.396 3.537-4.855 6.008-1.465-2.473-3.058-4.442-4.862-6.015a7.3 7.3 0 0 1-2.512-5.55C1.14 4.415 4.317 1.15 8.197 1c.1-.003.2-.007.3-.007a7.34 7.34 0 0 1 5.107 2.046 7.24 7.24 0 0 1 2.264 5.281 7.297 7.297 0 0 1-2.52 5.513"/>
    <path d="M8.494 5.509c-1.554 0-2.817 1.255-2.817 2.797 0 1.542 1.263 2.797 2.817 2.797 1.553 0 2.817-1.255 2.817-2.797 0-1.542-1.264-2.797-2.817-2.797m0 4.952a2.164 2.164 0 0 1-2.17-2.155c0-1.188.974-2.154 2.17-2.154s2.169.966 2.169 2.154c0 1.19-.973 2.155-2.17 2.155"/>
  </g>
</svg>