<svg xmlns="http://www.w3.org/2000/svg" width="21" height="21" viewBox="0 0 21 21">
  <g fill="#414241" fill-rule="evenodd">
    <path d="M10.201.353C4.575.353 0 4.898 0 10.486c0 5.587 4.575 10.133 10.201 10.133s10.201-4.546 10.201-10.133c0-5.588-4.575-10.133-10.201-10.133m0 19.623c-5.268 0-9.555-4.257-9.555-9.49 0-5.233 4.287-9.49 9.555-9.49s9.555 4.257 9.555 9.49c0 5.233-4.287 9.49-9.555 9.49"/>
    <path d="M14.972 10.197h-4.388v-7.93a.324.324 0 0 0-.648 0v8.251c0 .178.144.323.324.323h4.712a.321.321 0 1 0 0-.643"/>
  </g>
</svg>