<svg xmlns="http://www.w3.org/2000/svg" width="34" height="33" viewBox="0 0 34 33">
  <g fill="none" fill-rule="evenodd">
    <path fill="#68C1BE" d="M.333 32.865h33.174V0H.333z"/>
    <path fill="#FFFFFE" d="M11.911 12.706h-1.535l-.938 3.95a16.93 16.93 0 0 0-.202.932 15.89 15.89 0 0 0-.16.963 20.227 20.227 0 0 0-.162-.96c-.071-.373-.129-.65-.177-.832l-1.072-4.053H6.188l-1.072 4.053a9.531 9.531 0 0 0-.204.918c-.072.396-.119.686-.14.874a22.99 22.99 0 0 0-.357-1.895l-.941-3.95H1.937l1.878 7.236H5.59l.992-3.791c.045-.169.106-.45.187-.844.08-.395.13-.68.151-.859.013.145.064.43.154.853.088.424.152.705.19.84l.996 3.8h1.778l1.874-7.235zm9.975 0H20.35l-.936 3.95c-.061.236-.129.548-.202.932a15.89 15.89 0 0 0-.16.963 20.227 20.227 0 0 0-.163-.96c-.07-.373-.13-.65-.176-.832l-1.072-4.053h-1.477l-1.072 4.053a9.531 9.531 0 0 0-.204.918c-.074.396-.119.686-.14.874a22.99 22.99 0 0 0-.357-1.895l-.943-3.95h-1.536l1.88 7.236h1.772l.993-3.791c.043-.169.106-.45.186-.844.082-.395.131-.68.152-.859.013.145.064.43.154.853.088.424.15.705.188.84l.998 3.8h1.778l1.874-7.235zm9.975 0h-1.537l-.936 3.95c-.061.236-.129.548-.202.932-.074.384-.129.705-.162.963a20.953 20.953 0 0 0-.337-1.792l-1.072-4.053h-1.477l-1.072 4.053a9.448 9.448 0 0 0-.206.918c-.072.396-.118.686-.138.874a23.686 23.686 0 0 0-.357-1.895l-.943-3.95h-1.536l1.88 7.236h1.772l.993-3.791c.043-.169.106-.45.186-.844.082-.395.131-.68.152-.859.013.145.064.43.152.853.09.424.153.705.19.84l.997 3.8h1.78l1.873-7.235z"/>
  </g>
</svg>